<mxfile host="Electron" agent="Mozilla/5.0 (Windows NT 10.0; Win64; x64) AppleWebKit/537.36 (KHTML, like Gecko) draw.io/28.0.6 Chrome/138.0.7204.100 Electron/37.2.3 Safari/537.36" version="28.0.6">
  <diagram name="第 1 页" id="61tESLB1fa_krDt2gAiK">
    <mxGraphModel dx="1213" dy="828" grid="1" gridSize="10" guides="1" tooltips="1" connect="1" arrows="1" fold="1" page="1" pageScale="1" pageWidth="827" pageHeight="1169" math="0" shadow="0">
      <root>
        <mxCell id="0" />
        <mxCell id="1" parent="0" />
        <mxCell id="jr5irCRv_glKfVKKRCsZ-1" value="Actor" style="shape=umlActor;verticalLabelPosition=bottom;verticalAlign=top;html=1;outlineConnect=0;" parent="1" vertex="1">
          <mxGeometry x="110" y="320" width="70" height="140" as="geometry" />
        </mxCell>
        <mxCell id="jr5irCRv_glKfVKKRCsZ-2" value="" style="endArrow=classic;html=1;rounded=0;exitX=0.5;exitY=0.5;exitDx=0;exitDy=0;exitPerimeter=0;entryX=0;entryY=0.5;entryDx=0;entryDy=0;" parent="1" source="jr5irCRv_glKfVKKRCsZ-1" target="jr5irCRv_glKfVKKRCsZ-3" edge="1">
          <mxGeometry width="50" height="50" relative="1" as="geometry">
            <mxPoint x="390" y="450" as="sourcePoint" />
            <mxPoint x="250" y="300" as="targetPoint" />
          </mxGeometry>
        </mxCell>
        <mxCell id="jr5irCRv_glKfVKKRCsZ-3" value="&lt;font style=&quot;font-size: 20px;&quot;&gt;输入学号&lt;/font&gt;" style="rounded=0;whiteSpace=wrap;html=1;" parent="1" vertex="1">
          <mxGeometry x="220" y="310" width="120" height="60" as="geometry" />
        </mxCell>
        <mxCell id="jr5irCRv_glKfVKKRCsZ-4" value="&lt;font style=&quot;font-size: 20px;&quot;&gt;输入姓名&lt;/font&gt;" style="rounded=0;whiteSpace=wrap;html=1;" parent="1" vertex="1">
          <mxGeometry x="220" y="420" width="120" height="60" as="geometry" />
        </mxCell>
        <mxCell id="jr5irCRv_glKfVKKRCsZ-5" value="" style="endArrow=classic;html=1;rounded=0;exitX=0.5;exitY=0.5;exitDx=0;exitDy=0;exitPerimeter=0;entryX=0;entryY=0.5;entryDx=0;entryDy=0;" parent="1" source="jr5irCRv_glKfVKKRCsZ-1" target="jr5irCRv_glKfVKKRCsZ-4" edge="1">
          <mxGeometry width="50" height="50" relative="1" as="geometry">
            <mxPoint x="390" y="450" as="sourcePoint" />
            <mxPoint x="440" y="400" as="targetPoint" />
          </mxGeometry>
        </mxCell>
        <mxCell id="jr5irCRv_glKfVKKRCsZ-6" value="" style="endArrow=classic;html=1;rounded=0;exitX=1;exitY=0.5;exitDx=0;exitDy=0;entryX=0;entryY=0.5;entryDx=0;entryDy=0;" parent="1" source="jr5irCRv_glKfVKKRCsZ-3" target="jr5irCRv_glKfVKKRCsZ-11" edge="1">
          <mxGeometry width="50" height="50" relative="1" as="geometry">
            <mxPoint x="560" y="450" as="sourcePoint" />
            <mxPoint x="370" y="270" as="targetPoint" />
          </mxGeometry>
        </mxCell>
        <mxCell id="jr5irCRv_glKfVKKRCsZ-8" value="" style="endArrow=classic;html=1;rounded=0;entryX=0.5;entryY=1;entryDx=0;entryDy=0;exitX=0.5;exitY=0;exitDx=0;exitDy=0;" parent="1" source="jr5irCRv_glKfVKKRCsZ-11" target="jr5irCRv_glKfVKKRCsZ-9" edge="1">
          <mxGeometry width="50" height="50" relative="1" as="geometry">
            <mxPoint x="510" y="270" as="sourcePoint" />
            <mxPoint x="661" y="310" as="targetPoint" />
          </mxGeometry>
        </mxCell>
        <mxCell id="H5Cso44UOpJVDdSufMg0-2" style="edgeStyle=orthogonalEdgeStyle;rounded=0;orthogonalLoop=1;jettySize=auto;html=1;exitX=0.5;exitY=0;exitDx=0;exitDy=0;" edge="1" parent="1" source="jr5irCRv_glKfVKKRCsZ-9" target="H5Cso44UOpJVDdSufMg0-3">
          <mxGeometry relative="1" as="geometry">
            <mxPoint x="460" y="80" as="targetPoint" />
          </mxGeometry>
        </mxCell>
        <mxCell id="jr5irCRv_glKfVKKRCsZ-9" value="&lt;span style=&quot;font-size: 20px;&quot;&gt;输出学生信息&lt;/span&gt;" style="rounded=0;whiteSpace=wrap;html=1;" parent="1" vertex="1">
          <mxGeometry x="390" y="140" width="140" height="60" as="geometry" />
        </mxCell>
        <mxCell id="jr5irCRv_glKfVKKRCsZ-11" value="&lt;font style=&quot;font-size: 20px;&quot;&gt;学生存在&lt;/font&gt;" style="rhombus;whiteSpace=wrap;html=1;" parent="1" vertex="1">
          <mxGeometry x="400" y="280" width="120" height="120" as="geometry" />
        </mxCell>
        <mxCell id="jr5irCRv_glKfVKKRCsZ-12" value="yes&lt;div&gt;&lt;br&gt;&lt;/div&gt;" style="text;html=1;align=center;verticalAlign=middle;resizable=0;points=[];autosize=1;strokeColor=none;fillColor=none;" parent="1" vertex="1">
          <mxGeometry x="414" y="230" width="40" height="40" as="geometry" />
        </mxCell>
        <mxCell id="jr5irCRv_glKfVKKRCsZ-13" value="" style="endArrow=classic;html=1;rounded=0;entryX=0;entryY=0.5;entryDx=0;entryDy=0;exitX=1;exitY=0.5;exitDx=0;exitDy=0;" parent="1" source="jr5irCRv_glKfVKKRCsZ-11" target="jr5irCRv_glKfVKKRCsZ-14" edge="1">
          <mxGeometry width="50" height="50" relative="1" as="geometry">
            <mxPoint x="600" y="650" as="sourcePoint" />
            <mxPoint x="641" y="670" as="targetPoint" />
          </mxGeometry>
        </mxCell>
        <mxCell id="jr5irCRv_glKfVKKRCsZ-14" value="&lt;span style=&quot;font-size: 20px;&quot;&gt;提示学生不存在&lt;/span&gt;" style="rounded=0;whiteSpace=wrap;html=1;" parent="1" vertex="1">
          <mxGeometry x="620" y="310" width="150" height="60" as="geometry" />
        </mxCell>
        <mxCell id="jr5irCRv_glKfVKKRCsZ-15" value="no" style="text;html=1;align=center;verticalAlign=middle;resizable=0;points=[];autosize=1;strokeColor=none;fillColor=none;" parent="1" vertex="1">
          <mxGeometry x="540" y="305" width="40" height="30" as="geometry" />
        </mxCell>
        <mxCell id="jr5irCRv_glKfVKKRCsZ-23" style="edgeStyle=orthogonalEdgeStyle;rounded=0;orthogonalLoop=1;jettySize=auto;html=1;exitX=0.5;exitY=1;exitDx=0;exitDy=0;entryX=0.5;entryY=0;entryDx=0;entryDy=0;" parent="1" source="jr5irCRv_glKfVKKRCsZ-17" target="jr5irCRv_glKfVKKRCsZ-22" edge="1">
          <mxGeometry relative="1" as="geometry" />
        </mxCell>
        <mxCell id="jr5irCRv_glKfVKKRCsZ-27" style="edgeStyle=orthogonalEdgeStyle;rounded=0;orthogonalLoop=1;jettySize=auto;html=1;exitX=1;exitY=0.5;exitDx=0;exitDy=0;" parent="1" source="jr5irCRv_glKfVKKRCsZ-17" target="jr5irCRv_glKfVKKRCsZ-26" edge="1">
          <mxGeometry relative="1" as="geometry" />
        </mxCell>
        <mxCell id="jr5irCRv_glKfVKKRCsZ-17" value="&lt;font style=&quot;font-size: 20px;&quot;&gt;学生存在&lt;/font&gt;" style="rhombus;whiteSpace=wrap;html=1;" parent="1" vertex="1">
          <mxGeometry x="400" y="450" width="120" height="120" as="geometry" />
        </mxCell>
        <mxCell id="jr5irCRv_glKfVKKRCsZ-18" value="" style="endArrow=classic;html=1;rounded=0;exitX=1;exitY=0.5;exitDx=0;exitDy=0;entryX=0;entryY=0.5;entryDx=0;entryDy=0;" parent="1" source="jr5irCRv_glKfVKKRCsZ-4" target="jr5irCRv_glKfVKKRCsZ-17" edge="1">
          <mxGeometry width="50" height="50" relative="1" as="geometry">
            <mxPoint x="560" y="430" as="sourcePoint" />
            <mxPoint x="610" y="380" as="targetPoint" />
          </mxGeometry>
        </mxCell>
        <mxCell id="jr5irCRv_glKfVKKRCsZ-22" value="&lt;span style=&quot;font-size: 20px;&quot;&gt;输出所有学生信息&lt;/span&gt;" style="rounded=0;whiteSpace=wrap;html=1;" parent="1" vertex="1">
          <mxGeometry x="390" y="620" width="140" height="60" as="geometry" />
        </mxCell>
        <mxCell id="jr5irCRv_glKfVKKRCsZ-24" value="yes" style="text;html=1;align=center;verticalAlign=middle;resizable=0;points=[];autosize=1;strokeColor=none;fillColor=none;" parent="1" vertex="1">
          <mxGeometry x="420" y="570" width="40" height="30" as="geometry" />
        </mxCell>
        <mxCell id="jr5irCRv_glKfVKKRCsZ-26" value="&lt;span style=&quot;font-size: 20px;&quot;&gt;提示学生不存在&lt;/span&gt;" style="rounded=0;whiteSpace=wrap;html=1;" parent="1" vertex="1">
          <mxGeometry x="590" y="480" width="150" height="60" as="geometry" />
        </mxCell>
        <mxCell id="jr5irCRv_glKfVKKRCsZ-28" value="no" style="text;html=1;align=center;verticalAlign=middle;resizable=0;points=[];autosize=1;strokeColor=none;fillColor=none;" parent="1" vertex="1">
          <mxGeometry x="530" y="480" width="40" height="30" as="geometry" />
        </mxCell>
        <mxCell id="H5Cso44UOpJVDdSufMg0-1" value="" style="endArrow=classic;html=1;rounded=0;" edge="1" parent="1">
          <mxGeometry width="50" height="50" relative="1" as="geometry">
            <mxPoint x="390" y="350" as="sourcePoint" />
            <mxPoint x="440" y="300" as="targetPoint" />
          </mxGeometry>
        </mxCell>
        <mxCell id="H5Cso44UOpJVDdSufMg0-3" value="&lt;font style=&quot;font-size: 20px;&quot;&gt;返回该学生的引用&lt;/font&gt;" style="rounded=0;whiteSpace=wrap;html=1;" vertex="1" parent="1">
          <mxGeometry x="400" y="40" width="120" height="60" as="geometry" />
        </mxCell>
      </root>
    </mxGraphModel>
  </diagram>
</mxfile>
